<?xml version="1.0" encoding="UTF-8" standalone="no"?>
<svg
   height="24"
   width="24"
   version="1.1"
   id="svg167"
   sodipodi:docname="select_freehand.svg"
   inkscape:version="1.4 (86a8ad7, 2024-10-11)"
   xmlns:inkscape="http://www.inkscape.org/namespaces/inkscape"
   xmlns:sodipodi="http://sodipodi.sourceforge.net/DTD/sodipodi-0.dtd"
   xmlns="http://www.w3.org/2000/svg"
   xmlns:svg="http://www.w3.org/2000/svg"
   xmlns:rdf="http://www.w3.org/1999/02/22-rdf-syntax-ns#"
   xmlns:cc="http://creativecommons.org/ns#"
   xmlns:dc="http://purl.org/dc/elements/1.1/">
  <metadata
     id="metadata173">
    <rdf:RDF>
      <cc:Work
         rdf:about="">
        <dc:format>image/svg+xml</dc:format>
        <dc:type
           rdf:resource="http://purl.org/dc/dcmitype/StillImage" />
      </cc:Work>
    </rdf:RDF>
  </metadata>
  <defs
     id="defs171" />
  <sodipodi:namedview
     pagecolor="#ffffff"
     bordercolor="#666666"
     borderopacity="1"
     objecttolerance="10"
     gridtolerance="10"
     guidetolerance="10"
     inkscape:pageopacity="0"
     inkscape:pageshadow="2"
     inkscape:window-width="1920"
     inkscape:window-height="991"
     id="namedview169"
     showgrid="false"
     inkscape:zoom="12.330175"
     inkscape:cx="-5.5554767"
     inkscape:cy="-3.2035231"
     inkscape:window-x="-9"
     inkscape:window-y="-9"
     inkscape:window-maximized="1"
     inkscape:current-layer="svg167"
     inkscape:showpageshadow="2"
     inkscape:pagecheckerboard="0"
     inkscape:deskcolor="#d1d1d1" />
  <g
     style="display:inline;opacity:0.3"
     id="g5456"
     transform="matrix(1.2307692,0,0,1.2307692,0,-9.8461542)">
    <rect
       y="8"
       x="6.499999"
       height="6.499999"
       width="6.499999"
       id="rect6419"
       style="fill:#6e97c4;fill-opacity:1;fill-rule:nonzero;stroke:none" />
    <rect
       y="8"
       x="13.000001"
       height="6.499999"
       width="6.499999"
       id="rect6419-6"
       style="display:inline;fill:#253e5b;fill-opacity:1;fill-rule:nonzero;stroke:none" />
    <rect
       inkscape:transform-center-y="-4.3333322"
       inkscape:transform-center-x="-3.2499991"
       y="14.5"
       x="6.499999"
       height="6.499999"
       width="6.499999"
       id="rect6419-6-9"
       style="display:inline;fill:#253e5b;fill-opacity:1;fill-rule:nonzero;stroke:none" />
    <rect
       y="14.5"
       x="13.000001"
       height="6.499999"
       width="6.499999"
       id="rect6419-0"
       style="display:inline;fill:#6d97c4;fill-opacity:1;fill-rule:nonzero;stroke:none" />
    <rect
       y="8"
       x="0"
       height="6.499999"
       width="6.499999"
       id="rect6419-6-7"
       style="display:inline;fill:#253e5b;fill-opacity:1;fill-rule:nonzero;stroke:none" />
    <rect
       y="14.5"
       x="0"
       height="6.499999"
       width="6.499999"
       id="rect6419-3"
       style="display:inline;fill:#6d97c4;fill-opacity:1;fill-rule:nonzero;stroke:none" />
    <rect
       y="21.000002"
       x="6.499999"
       height="6.499999"
       width="6.499999"
       id="rect6419-5"
       style="display:inline;fill:#6d97c4;fill-opacity:1;fill-rule:nonzero;stroke:none" />
    <rect
       y="21.000002"
       x="0"
       height="6.499999"
       width="6.499999"
       id="rect6419-6-6"
       style="display:inline;fill:#253e5b;fill-opacity:1;fill-rule:nonzero;stroke:none" />
    <rect
       y="8"
       x="0"
       height="19.499998"
       width="19.499998"
       id="rect6554"
       style="fill:none;stroke:none" />
  </g>
  <g
     id="g1" />
  <path
     d="m 1.9626016,6.2178411 c 1.3086949,2.3138305 1.9443612,3.5045336 2.8706187,3.8606389 1.1464049,0.440743 3.0276299,3.461013 2.7867016,4.591607 -0.4776986,2.241677 -5.7803471,2.362549 -6.2830762,3.581849 -0.94519622,2.292442 0.5640171,3.717554 1.5254616,3.952378 0.8200728,0.200296 2.6362707,1.131147 3.8766738,-0.308361 2.4151841,-2.802861 4.7045029,-3.705832 5.7814789,-4.002846 2.515728,0.103505 4.497839,1.655286 5.630706,0.968585 3.423834,-0.446944 3.189534,5.16514 4.125997,2.277521 C 22.889252,19.251816 22.99274,13.28151 19.981115,11.904377 10.318942,7.3024621 25.152339,8.2229871 21.475785,2.3914988 19.481391,1.1476947 17.979033,0.96059167 15.652596,2.1024722 L 14.647865,2.4964953 C 13.05557,3.23753 10.887084,5.0584764 10.276573,4.9126375 9.3833666,4.6992682 4.0309525,1.0053179 2.5553173,1.8014566 -0.02304214,3.19254 1.5420908,4.2030314 1.9626016,6.2178411 Z"
     fill="none"
     stroke="#424242"
     stroke-dasharray="4, 1"
     id="path161"
     sodipodi:nodetypes="csssssccsccccssc"
     style="stroke:none" />
  <path
     d="m 1.9220507,6.521973 c 0.6801555,0.9148236 1.9849121,3.2004017 2.9111696,3.556507 1.1464049,0.440743 2.0138568,2.852749 1.7729285,3.983343 -0.4776986,2.241677 -3.3460255,1.969761 -4.293199,2.988344 -1.68857205,1.815878 -0.3246246,4.807684 0.6368199,5.042508 0.8200728,0.200296 3.929593,0.459199 5.0729261,-1.058553 0.874249,-1.160549 3.4207882,-2.844001 4.4977642,-3.141015 2.515728,0.103505 3.159658,0.884818 4.292525,0.198117 3.423834,-0.446944 1.154588,2.818411 4.166548,2.439725 1.788066,-0.224809 3.02698,-6.39787 0.01535,-7.775003 -4.58538,-3.8179781 2.659712,-2.384075 1.276769,-8.679411 C 22.20347,3.7661623 21.696289,2.9888228 20.928348,2.269846 18.933954,1.0260419 17.90141,2.366556 16.913153,2.8798972 L 13.358633,4.754626 C 12.232674,5.3537325 9.1839451,3.4567149 8.5734341,3.310876 7.6802277,3.0975067 4.0309525,1.0053179 2.5553173,1.8014566 -0.02304214,3.19254 1.5623663,5.6831402 1.9220507,6.521973 Z"
     fill="none"
     stroke="#424242"
     stroke-dasharray="4, 1"
     id="path1"
     sodipodi:nodetypes="csssssccscscccssc"
     inkscape:highlight-color="#aaaaaa"
     style="fill:#e5e5e5;fill-opacity:1"
     inkscape:label="path162" />
  <path
     d="M 22.36103,15.624211 9.604566,8.6451107 l 5.477553,13.6014003 2.180887,-3.5312 4.312159,4.7134 1.633122,-1.5913 -4.408599,-4.6683 z"
     style="fill:#ffffff;fill-rule:evenodd;stroke:#000000;stroke-width:0.7;stroke-linecap:round;stroke-linejoin:round"
     id="path163" />
</svg>
